<svg version="1.1" id="Layer_1" xmlns="http://www.w3.org/2000/svg" xmlns:xlink="http://www.w3.org/1999/xlink" x="0px" y="0px"
	 width="100%" viewBox="0 0 1024 1024" enable-background="new 0 0 1024 1024" xml:space="preserve">
<path fill="#FFFFFF" opacity="1.000000" stroke="none" 
	d="
M224.000000,1025.000000 
	C149.686417,1025.000000 75.372826,1025.000000 1.029621,1025.000000 
	C1.029621,683.777100 1.029621,342.554199 1.029621,1.000000 
	C118.691360,1.000000 236.383041,1.000000 354.621399,1.462091 
	C355.168060,195.599258 355.168060,389.274353 355.168060,583.368713 
	C371.212128,583.368713 386.526886,583.368713 401.844543,583.814026 
	C401.955444,593.451355 402.063477,602.643311 402.113342,612.297729 
	C402.055206,615.347839 402.055206,617.935669 402.055206,620.969299 
	C399.213684,620.969299 397.245789,620.969238 395.277863,620.969299 
	C359.631104,620.970764 323.984253,620.940491 288.337646,621.018127 
	C284.379761,621.026733 280.375916,621.371582 276.473511,622.033081 
	C246.870514,627.050537 224.004395,654.187683 224.002762,684.190247 
	C223.996567,797.793518 224.000107,911.396729 224.000000,1025.000000 
M108.500061,18.832169 
	C93.749306,18.832169 78.998543,18.832169 64.382210,18.832169 
	C64.382210,37.854092 64.382210,56.244545 64.382210,75.028580 
	C98.324295,75.028580 131.905930,75.028580 165.870743,75.028580 
	C165.870743,240.154999 165.870743,404.882080 165.870743,569.683228 
	C186.474426,569.683228 206.688766,569.683228 227.243652,569.683228 
	C227.243652,404.621826 227.243652,239.877090 227.243652,74.582733 
	C261.296387,74.582733 295.009216,74.582733 328.626160,74.582733 
	C328.626160,55.756836 328.626160,37.482357 328.626160,18.832169 
	C255.414368,18.832169 182.457214,18.832169 108.500061,18.832169 
z"/>
<path fill="#FFFFFF" opacity="1.000000" stroke="none" 
	d="
M658.000000,1.000000 
	C780.301575,1.000000 902.603210,1.000000 1024.952393,1.000000 
	C1024.952393,342.213013 1024.952393,683.426025 1024.952393,1025.000000 
	C946.974548,1025.000000 868.948486,1025.000000 790.448303,1024.531494 
	C789.971313,912.238403 790.017456,800.413940 789.846375,688.589722 
	C789.835876,681.716736 788.767029,674.679138 787.067322,668.004150 
	C780.110535,640.684143 754.554138,621.088745 726.702820,621.004822 
	C690.539368,620.895935 654.375305,620.973022 618.211548,620.970093 
	C616.285767,620.969910 614.359985,620.970093 612.271912,620.970093 
	C612.058472,617.379150 611.891907,614.576416 611.800903,611.330444 
	C611.958801,601.708496 612.041199,592.529968 612.509766,583.280640 
	C613.932373,583.129761 614.968811,583.049622 616.466248,583.058411 
	C630.690247,583.147339 644.453308,583.147339 658.382874,583.147339 
	C658.382874,581.379517 658.382874,580.224182 658.382874,579.068787 
	C658.382874,387.857025 658.383728,196.645279 658.367065,5.433518 
	C658.366943,3.955668 658.127625,2.477839 658.000000,1.000000 
M693.297058,203.499847 
	C693.297058,325.589630 693.297058,447.679382 693.297058,569.639221 
	C714.147949,569.639221 734.379822,569.639221 755.098511,569.639221 
	C755.098511,491.068604 755.098511,412.860596 755.098511,334.883148 
	C773.083069,334.883148 790.588806,334.479431 808.061401,335.065704 
	C815.947754,335.330322 823.945557,336.922333 831.584595,339.029449 
	C853.992432,345.210327 869.613586,358.897461 874.274414,382.314575 
	C876.693054,394.466339 877.857727,407.022064 878.096497,419.424072 
	C878.782654,455.073212 878.603882,490.738129 878.986389,526.394470 
	C879.133850,540.139343 881.727661,553.483032 886.991821,566.279114 
	C888.186096,569.182129 889.715027,570.117798 892.866028,570.086731 
	C910.528809,569.912170 928.194214,570.002625 945.858765,570.002625 
	C947.260864,570.002625 948.662964,570.002625 950.209961,570.002625 
	C947.999207,563.851562 945.140076,558.413330 944.167664,552.656372 
	C942.261597,541.371765 940.486206,529.925354 940.291504,518.518005 
	C939.734253,485.864197 939.984131,453.196381 939.938416,420.534088 
	C939.915710,404.336884 938.736877,388.257263 934.859070,372.479828 
	C928.318726,345.869781 915.594543,323.663483 890.085449,310.874634 
	C884.240417,307.944244 878.079773,305.643341 871.435669,302.781952 
	C873.419922,302.043182 874.894592,301.494110 876.369263,300.945099 
	C898.655396,292.648071 915.866333,278.639221 926.169739,256.807220 
	C933.066345,242.193787 937.312744,226.746490 937.898560,210.712006 
	C938.816406,185.585541 939.023804,160.414398 938.768555,135.269928 
	C938.576782,116.377464 935.321960,97.859505 928.098267,80.227005 
	C919.756104,59.864426 906.773682,43.592400 886.955078,33.224571 
	C868.711365,23.680555 849.002258,19.554930 828.772034,19.255852 
	C784.620056,18.603119 740.453857,18.910881 696.293457,18.846085 
	C695.369995,18.844728 694.446106,19.084299 693.297058,19.242508 
	C693.297058,80.558296 693.297058,141.529068 693.297058,203.499847 
z"/>
<path fill="#FF66C4" opacity="1.000000" stroke="none" 
	d="
M661.000000,1025.000000 
	C536.979126,1025.000000 412.958221,1025.000000 288.511993,1024.532959 
	C287.433441,1008.779846 286.786530,993.493469 286.125519,978.207703 
	C285.126801,955.112488 284.122162,932.017456 283.112885,908.922729 
	C282.125397,886.327454 281.121490,863.732849 280.138489,841.137451 
	C279.119293,817.709412 278.063416,794.282776 277.122528,770.851562 
	C276.301483,750.404236 275.687408,729.948425 274.843445,709.502136 
	C274.446014,699.873779 273.834351,690.250793 273.125946,680.639648 
	C271.586945,659.759277 283.500183,646.112305 303.744995,646.105896 
	C439.216064,646.062927 574.687134,646.065552 710.158142,646.171570 
	C714.228821,646.174744 718.582764,646.778442 722.316162,648.300476 
	C734.364563,653.212219 740.579590,662.485474 740.123474,675.579285 
	C739.301270,699.180725 738.174927,722.771545 737.164917,746.366394 
	C736.154907,769.961609 735.139099,793.556519 734.112671,817.151062 
	C733.129761,839.746582 732.122253,862.341064 731.139465,884.936584 
	C730.120422,908.364624 729.131104,931.793945 728.104553,955.221619 
	C727.085327,978.481750 726.036072,1001.740601 725.000000,1025.000000 
	C711.645752,1025.000000 698.291565,1025.000000 684.508118,1024.612305 
	C685.706665,1015.279114 687.935913,1006.392151 688.816711,997.373596 
	C690.041443,984.833252 690.299744,972.196350 690.892639,959.597046 
	C691.946289,937.206543 692.919495,914.812378 693.967529,892.421631 
	C694.572754,879.489685 695.319275,866.564148 695.895081,853.630981 
	C696.973389,829.408997 697.990601,805.184082 698.998291,780.958984 
	C699.398743,771.331848 699.895325,761.702637 699.984375,752.070923 
	C700.036743,746.411621 695.638428,742.204895 690.298462,742.009644 
	C684.839417,741.809998 679.518372,746.074646 679.060181,751.288818 
	C678.581177,756.740662 678.337585,762.214661 678.058716,767.682373 
	C677.382324,780.944153 676.722595,794.206787 676.097473,807.471008 
	C675.065613,829.362793 674.078064,851.256714 673.049072,873.148682 
	C672.417786,886.579285 671.722717,900.006897 671.094299,913.437622 
	C670.062256,935.495972 668.794983,957.547913 668.137573,979.617737 
	C667.676453,995.098206 667.350220,1010.492981 661.000000,1025.000000 
z"/>
<path fill="#C5D6EF" opacity="1.000000" stroke="none" 
	d="
M725.468628,1025.000000 
	C726.036072,1001.740601 727.085327,978.481750 728.104553,955.221619 
	C729.131104,931.793945 730.120422,908.364624 731.139465,884.936584 
	C732.122253,862.341064 733.129761,839.746582 734.112671,817.151062 
	C735.139099,793.556519 736.154907,769.961609 737.164917,746.366394 
	C738.174927,722.771545 739.301270,699.180725 740.123474,675.579285 
	C740.579590,662.485474 734.364563,653.212219 722.316162,648.300476 
	C718.582764,646.778442 714.228821,646.174744 710.158142,646.171570 
	C574.687134,646.065552 439.216064,646.062927 303.744995,646.105896 
	C283.500183,646.112305 271.586945,659.759277 273.125946,680.639648 
	C273.834351,690.250793 274.446014,699.873779 274.843445,709.502136 
	C275.687408,729.948425 276.301483,750.404236 277.122528,770.851562 
	C278.063416,794.282776 279.119293,817.709412 280.138489,841.137451 
	C281.121490,863.732849 282.125397,886.327454 283.112885,908.922729 
	C284.122162,932.017456 285.126801,955.112488 286.125519,978.207703 
	C286.786530,993.493469 287.433441,1008.779846 288.043335,1024.532959 
	C266.979095,1025.000000 245.958206,1025.000000 224.468658,1025.000000 
	C224.000107,911.396729 223.996567,797.793518 224.002762,684.190247 
	C224.004395,654.187683 246.870514,627.050537 276.473511,622.033081 
	C280.375916,621.371582 284.379761,621.026733 288.337646,621.018127 
	C323.984253,620.940491 359.631104,620.970764 395.277863,620.969299 
	C397.245789,620.969238 399.213684,620.969299 402.055206,620.969299 
	C402.055206,617.935669 402.055206,615.347839 402.565491,612.322876 
	C452.660339,611.893066 502.244873,611.913879 551.829407,611.901428 
	C571.794678,611.896362 591.760010,611.818481 611.725281,611.773743 
	C611.891907,614.576416 612.058472,617.379150 612.271912,620.970093 
	C614.359985,620.970093 616.285767,620.969910 618.211548,620.970093 
	C654.375305,620.973022 690.539368,620.895935 726.702820,621.004822 
	C754.554138,621.088745 780.110535,640.684143 787.067322,668.004150 
	C788.767029,674.679138 789.835876,681.716736 789.846375,688.589722 
	C790.017456,800.413940 789.971313,912.238403 789.987061,1024.531494 
	C768.645752,1025.000000 747.291565,1025.000000 725.468628,1025.000000 
z"/>
<path fill="#030303" opacity="1.000000" stroke="none" 
	d="
M401.841675,583.368713 
	C386.526886,583.368713 371.212128,583.368713 355.168060,583.368713 
	C355.168060,389.274353 355.168060,195.599258 355.084045,1.462091 
	C400.687561,1.000000 446.375122,1.000000 492.521606,1.468579 
	C492.978333,50.103374 492.995911,98.269630 492.898773,146.435654 
	C492.895050,148.282822 491.786316,150.127777 491.054077,151.620926 
	C490.676422,150.647339 490.404785,150.036957 490.202484,149.404388 
	C476.746185,107.336723 463.286896,65.270020 449.864929,23.191393 
	C449.023804,20.554432 448.327637,18.692879 444.672882,18.726343 
	C421.010956,18.943001 397.346100,18.834381 373.682190,18.849514 
	C372.722107,18.850128 371.762115,19.022573 370.677246,19.126976 
	C370.677246,202.768723 370.677246,386.177277 370.677246,569.783325 
	C388.948669,569.783325 407.048828,569.783325 425.670074,569.783325 
	C425.670074,422.197052 425.670074,274.823364 425.670074,126.051643 
	C426.516479,127.818153 426.774719,128.225281 426.915558,128.669632 
	C443.572083,181.221848 460.258362,233.764679 476.847565,286.338165 
	C482.689819,304.853027 488.293243,323.443237 493.694855,342.281555 
	C493.246979,344.207642 492.990387,345.851166 492.990021,347.494751 
	C492.972778,425.970184 492.977722,504.445587 492.520538,583.013794 
	C488.239380,583.128906 484.417847,583.161682 480.596252,583.171631 
	C454.344727,583.239990 428.093201,583.303589 401.841675,583.368713 
z"/>
<path fill="#202020" opacity="1.000000" stroke="none" 
	d="
M491.192505,151.973755 
	C491.786316,150.127777 492.895050,148.282822 492.898773,146.435654 
	C492.995911,98.269630 492.978333,50.103374 492.990265,1.468579 
	C533.687561,1.000000 574.375122,1.000000 615.520630,1.467317 
	C615.997681,7.500440 616.016724,13.066245 615.573853,18.729057 
	C602.184143,18.826065 589.256409,18.826065 575.859009,18.826065 
	C575.859009,150.975174 575.859009,282.548370 575.859009,414.121552 
	C574.800537,412.961853 574.372986,411.748871 573.980042,410.524719 
	C560.782288,369.413361 547.564758,328.308350 534.399231,287.186707 
	C519.971741,242.123810 505.592682,197.045395 491.192505,151.973755 
z"/>
<path fill="#000000" opacity="1.000000" stroke="none" 
	d="
M616.035767,18.632050 
	C616.016724,13.066245 615.997681,7.500440 615.989319,1.467317 
	C629.687561,1.000000 643.375122,1.000000 657.531372,1.000000 
	C658.127625,2.477839 658.366943,3.955668 658.367065,5.433518 
	C658.383728,196.645279 658.382874,387.857025 658.382874,579.068787 
	C658.382874,580.224182 658.382874,581.379517 658.382874,583.147339 
	C644.453308,583.147339 630.690247,583.147339 616.454956,582.598938 
	C615.996216,578.084229 616.009705,574.117981 616.483887,570.082275 
	C621.236816,570.012939 625.528992,570.012939 629.834229,570.012939 
	C629.834229,386.039917 629.834229,202.508286 629.834229,18.632050 
	C625.004517,18.632050 620.520142,18.632050 616.035767,18.632050 
z"/>
<path fill="#FFBBE5" opacity="1.000000" stroke="none" 
	d="
M661.468628,1025.000000 
	C667.350220,1010.492981 667.676453,995.098206 668.137573,979.617737 
	C668.794983,957.547913 670.062256,935.495972 671.094299,913.437622 
	C671.722717,900.006897 672.417786,886.579285 673.049072,873.148682 
	C674.078064,851.256714 675.065613,829.362793 676.097473,807.471008 
	C676.722595,794.206787 677.382324,780.944153 678.058716,767.682373 
	C678.337585,762.214661 678.581177,756.740662 679.060181,751.288818 
	C679.518372,746.074646 684.839417,741.809998 690.298462,742.009644 
	C695.638428,742.204895 700.036743,746.411621 699.984375,752.070923 
	C699.895325,761.702637 699.398743,771.331848 698.998291,780.958984 
	C697.990601,805.184082 696.973389,829.408997 695.895081,853.630981 
	C695.319275,866.564148 694.572754,879.489685 693.967529,892.421631 
	C692.919495,914.812378 691.946289,937.206543 690.892639,959.597046 
	C690.299744,972.196350 690.041443,984.833252 688.816711,997.373596 
	C687.935913,1006.392151 685.706665,1015.279114 684.039429,1024.612305 
	C676.645752,1025.000000 669.291504,1025.000000 661.468628,1025.000000 
z"/>
<path fill="#000000" opacity="1.000000" stroke="none" 
	d="
M109.000069,18.832169 
	C182.457214,18.832169 255.414368,18.832169 328.626160,18.832169 
	C328.626160,37.482357 328.626160,55.756836 328.626160,74.582733 
	C295.009216,74.582733 261.296387,74.582733 227.243652,74.582733 
	C227.243652,239.877090 227.243652,404.621826 227.243652,569.683228 
	C206.688766,569.683228 186.474426,569.683228 165.870743,569.683228 
	C165.870743,404.882080 165.870743,240.154999 165.870743,75.028580 
	C131.905930,75.028580 98.324295,75.028580 64.382210,75.028580 
	C64.382210,56.244545 64.382210,37.854092 64.382210,18.832169 
	C78.998543,18.832169 93.749306,18.832169 109.000069,18.832169 
z"/>
<path fill="#96A3B6" opacity="1.000000" stroke="none" 
	d="
M401.844543,583.814026 
	C428.093201,583.303589 454.344727,583.239990 480.596252,583.171631 
	C484.417847,583.161682 488.239380,583.128906 492.981506,583.114990 
	C503.879425,583.139221 513.856812,583.151917 523.834167,583.171753 
	C553.263977,583.230164 582.693726,583.291321 612.123535,583.351379 
	C612.041199,592.529968 611.958801,601.708496 611.800903,611.330444 
	C591.760010,611.818481 571.794678,611.896362 551.829407,611.901428 
	C502.244873,611.913879 452.660339,611.893066 402.623657,611.860474 
	C402.063477,602.643311 401.955444,593.451355 401.844543,583.814026 
z"/>
<path fill="#020202" opacity="1.000000" stroke="none" 
	d="
M693.297058,202.999847 
	C693.297058,141.529068 693.297058,80.558296 693.297058,19.242508 
	C694.446106,19.084299 695.369995,18.844728 696.293457,18.846085 
	C740.453857,18.910881 784.620056,18.603119 828.772034,19.255852 
	C849.002258,19.554930 868.711365,23.680555 886.955078,33.224571 
	C906.773682,43.592400 919.756104,59.864426 928.098267,80.227005 
	C935.321960,97.859505 938.576782,116.377464 938.768555,135.269928 
	C939.023804,160.414398 938.816406,185.585541 937.898560,210.712006 
	C937.312744,226.746490 933.066345,242.193787 926.169739,256.807220 
	C915.866333,278.639221 898.655396,292.648071 876.369263,300.945099 
	C874.894592,301.494110 873.419922,302.043182 871.435669,302.781952 
	C878.079773,305.643341 884.240417,307.944244 890.085449,310.874634 
	C915.594543,323.663483 928.318726,345.869781 934.859070,372.479828 
	C938.736877,388.257263 939.915710,404.336884 939.938416,420.534088 
	C939.984131,453.196381 939.734253,485.864197 940.291504,518.518005 
	C940.486206,529.925354 942.261597,541.371765 944.167664,552.656372 
	C945.140076,558.413330 947.999207,563.851562 950.209961,570.002625 
	C948.662964,570.002625 947.260864,570.002625 945.858765,570.002625 
	C928.194214,570.002625 910.528809,569.912170 892.866028,570.086731 
	C889.715027,570.117798 888.186096,569.182129 886.991821,566.279114 
	C881.727661,553.483032 879.133850,540.139343 878.986389,526.394470 
	C878.603882,490.738129 878.782654,455.073212 878.096497,419.424072 
	C877.857727,407.022064 876.693054,394.466339 874.274414,382.314575 
	C869.613586,358.897461 853.992432,345.210327 831.584595,339.029449 
	C823.945557,336.922333 815.947754,335.330322 808.061401,335.065704 
	C790.588806,334.479431 773.083069,334.883148 755.098511,334.883148 
	C755.098511,412.860596 755.098511,491.068604 755.098511,569.639221 
	C734.379822,569.639221 714.147949,569.639221 693.297058,569.639221 
	C693.297058,447.679382 693.297058,325.589630 693.297058,202.999847 
M771.500793,74.840141 
	C766.053589,74.840141 760.606384,74.840141 755.193054,74.840141 
	C755.193054,142.998138 755.193054,210.670914 755.193054,279.178467 
	C777.393127,278.444855 799.226196,278.317383 820.950439,276.714233 
	C829.687927,276.069427 838.508789,272.977112 846.729980,269.622192 
	C866.779419,261.440399 875.713989,244.283127 876.596375,224.280228 
	C877.995605,192.560287 877.503601,160.718445 876.679382,128.957550 
	C876.341919,115.953255 871.756653,103.439590 863.260864,93.062485 
	C852.510742,79.931961 837.494507,75.761169 821.477722,75.117523 
	C805.174683,74.462364 788.828186,74.887848 771.500793,74.840141 
z"/>
<path fill="#1F1F1F" opacity="1.000000" stroke="none" 
	d="
M612.509705,583.280640 
	C582.693726,583.291321 553.263977,583.230164 523.834167,583.171753 
	C513.856812,583.151917 503.879425,583.139221 493.441101,583.022217 
	C492.977722,504.445587 492.972778,425.970184 492.990021,347.494751 
	C492.990387,345.851166 493.246979,344.207642 493.976807,342.521423 
	C518.583984,418.319611 542.598389,494.160431 566.660400,570.151672 
	C583.428040,570.151672 599.725586,570.151672 616.023193,570.151672 
	C616.009705,574.117981 615.996216,578.084229 615.994019,582.510010 
	C614.968811,583.049622 613.932373,583.129761 612.509705,583.280640 
z"/>
<path fill="#FEFEFE" opacity="1.000000" stroke="none" 
	d="
M616.483887,570.082275 
	C599.725586,570.151672 583.428040,570.151672 566.660400,570.151672 
	C542.598389,494.160431 518.583984,418.319611 494.287659,342.238892 
	C488.293243,323.443237 482.689819,304.853027 476.847565,286.338165 
	C460.258362,233.764679 443.572083,181.221848 426.915558,128.669632 
	C426.774719,128.225281 426.516479,127.818153 425.670074,126.051643 
	C425.670074,274.823364 425.670074,422.197052 425.670074,569.783325 
	C407.048828,569.783325 388.948669,569.783325 370.677246,569.783325 
	C370.677246,386.177277 370.677246,202.768723 370.677246,19.126976 
	C371.762115,19.022573 372.722107,18.850128 373.682190,18.849514 
	C397.346100,18.834381 421.010956,18.943001 444.672882,18.726343 
	C448.327637,18.692879 449.023804,20.554432 449.864929,23.191393 
	C463.286896,65.270020 476.746185,107.336723 490.202484,149.404388 
	C490.404785,150.036957 490.676422,150.647339 491.054077,151.620926 
	C505.592682,197.045395 519.971741,242.123810 534.399231,287.186707 
	C547.564758,328.308350 560.782288,369.413361 573.980042,410.524719 
	C574.372986,411.748871 574.800537,412.961853 575.859009,414.121552 
	C575.859009,282.548370 575.859009,150.975174 575.859009,18.826065 
	C589.256409,18.826065 602.184143,18.826065 615.573853,18.729057 
	C620.520142,18.632050 625.004517,18.632050 629.834229,18.632050 
	C629.834229,202.508286 629.834229,386.039917 629.834229,570.012939 
	C625.528992,570.012939 621.236816,570.012939 616.483887,570.082275 
z"/>
<path fill="#FFFFFF" opacity="1.000000" stroke="none" 
	d="
M772.000732,74.840141 
	C788.828186,74.887848 805.174683,74.462364 821.477722,75.117523 
	C837.494507,75.761169 852.510742,79.931961 863.260864,93.062485 
	C871.756653,103.439590 876.341919,115.953255 876.679382,128.957550 
	C877.503601,160.718445 877.995605,192.560287 876.596375,224.280228 
	C875.713989,244.283127 866.779419,261.440399 846.729980,269.622192 
	C838.508789,272.977112 829.687927,276.069427 820.950439,276.714233 
	C799.226196,278.317383 777.393127,278.444855 755.193054,279.178467 
	C755.193054,210.670914 755.193054,142.998138 755.193054,74.840141 
	C760.606384,74.840141 766.053589,74.840141 772.000732,74.840141 
z"/>
</svg>